# xmcd
#
# Track frame offsets:
#	150
#	18446
#	34877
#	51688
#	72555
#	92081
#	108622
#	130744
#	147858
#	167476
#	189447
#	204373
#
# Disc length: 2969 seconds
#
# Revision: 1
# Processed by: cddbd v1.5.1PL0 Copyright (c) Steve Scherf et al.
# Submitted via: audiograbber 1.82.02
#
DISCID=ae0b970c
DTITLE=Mick Sterling - Between Saturday Night and Sunday Morning
DYEAR=2005
DGENRE=Blues
TTITLE0=Man Pants
TTITLE1=Who Died and Made You King?
TTITLE2=Heavy Lifting
TTITLE3=The Skies of Avalon
TTITLE4=Lucky Man
TTITLE5=You Don't Know What Dirty Is
TTITLE6=The Biblical Sense
TTITLE7=It's Been a Long Time (Since I Loved My Woman Like That)
TTITLE8=Between Saturday Night and Sunday Monring
TTITLE9=Maggie's Rosary
TTITLE10=Divine Miss Guidance
TTITLE11=Follow
EXTD=
EXTT0=
EXTT1=
EXTT2=
EXTT3=
EXTT4=
EXTT5=
EXTT6=
EXTT7=
EXTT8=
EXTT9=
EXTT10=
EXTT11=
PLAYORDER=
